<svg id="Capa_1" enable-background="new 0 0 512 512" height="512" viewBox="0 0 512 512" width="512" xmlns="http://www.w3.org/2000/svg"><g><g><path d="m131.151 417.859c-6.688 0-13.25-.543-19.652-1.573l-9.84 73.668h58.984l-9.84-73.668c-6.402 1.03-12.964 1.573-19.652 1.573z" fill="#cbe2ff"/><path d="m218.369 169.65c0-48.169-39.049-87.217-87.217-87.217-48.169 0-87.217 39.048-87.217 87.217v103.459l20.446 16.87h133.543l20.446-16.87v-103.459z" fill="#7ba0b0"/><g><g><path d="m43.934 292.264c0 48.169 39.049 87.217 87.217 87.217 48.169 0 87.217-39.048 87.217-87.217v-19.154h-174.434z" fill="#dcf5ff"/><path d="m131.151 82.433c-7.001 0-13.807.83-20.33 2.388 38.362 9.16 66.887 43.661 66.887 84.829v120.33h20.215l20.446-16.87v-103.46c0-48.169-39.049-87.217-87.218-87.217z" fill="#688b96"/><path d="m177.708 273.109v19.154c0 41.168-28.525 75.669-66.887 84.829 6.523 1.558 13.329 2.388 20.33 2.388 48.169 0 87.217-39.049 87.217-87.217v-19.154z" fill="#ddeafb"/><path d="m195.532 465.058h-128.762c-16.234 0-29.395 13.161-29.395 29.395 0 5.547 4.497 10.044 10.044 10.044h167.464c5.547 0 10.044-4.497 10.044-10.044 0-16.234-13.16-29.395-29.395-29.395z" fill="#dcf5ff"/><path d="m195.532 465.058h-29.998c10.346 0 18.733 8.387 18.733 18.733v20.706h30.616c5.547 0 10.044-4.497 10.044-10.044 0-16.234-13.16-29.395-29.395-29.395z" fill="#ddeafb"/></g><g><g><g><g><g><path d="m452.148 7.502h-145.74c-28.707 0-51.979 23.272-51.979 51.979v62.445c0 24.596 17.083 45.201 40.032 50.598 7.026 1.653 11.907 8.053 11.907 15.271v45.664c0 4.583 5.864 6.49 8.56 2.784l40.618-55.85c2.965-4.076 7.701-6.488 12.741-6.488h83.862c28.707 0 51.979-23.272 51.979-51.979v-62.445c-.001-28.707-23.273-51.979-51.98-51.979z" fill="#d5b0ec"/></g></g></g></g></g><g fill="#c995e4"><path d="m306.367 192.063v41.396c0 4.583 5.864 6.49 8.56 2.784l40.618-55.85c2.965-4.076 7.701-6.488 12.741-6.488h-36.164c-7.884 0-15.293 3.773-19.93 10.149z"/><path d="m452.148 7.502h-16.328c15.252 0 27.616 12.364 27.616 27.616v111.17c0 15.252-12.364 27.616-27.616 27.616h16.328c28.707 0 51.979-23.272 51.979-51.979v-62.444c0-28.707-23.272-51.979-51.979-51.979z"/></g></g></g><g><g><path d="m254.429 241.215c-4.144 0-7.502 3.359-7.502 7.502v45.864c0 63.839-51.937 115.775-115.776 115.775-63.838 0-115.775-51.936-115.775-115.775v-45.864c0-4.143-3.359-7.502-7.502-7.502s-7.502 3.359-7.502 7.502v45.864c0 62.494 44.065 114.881 102.753 127.746l-4.706 35.228h-31.649c-20.344 0-36.897 16.552-36.897 36.897 0 9.675 7.871 17.547 17.546 17.547h167.464c9.675 0 17.547-7.871 17.547-17.547 0-20.345-16.552-36.897-36.898-36.897h-31.648l-4.706-35.228c58.688-12.866 102.753-65.253 102.753-127.746v-45.864c.001-4.143-3.358-7.502-7.502-7.502zm-37.004 253.238c0 1.402-1.14 2.542-2.542 2.542h-167.464c-1.401 0-2.541-1.14-2.541-2.542 0-12.071 9.821-21.892 21.892-21.892h128.762c12.071 0 21.893 9.821 21.893 21.892zm-68.678-36.897h-35.191l4.389-32.858c4.344.438 8.749.663 13.206.663s8.863-.226 13.207-.664z"/><path d="m308.921 65.875h150.049c4.144 0 7.502-3.359 7.502-7.502s-3.358-7.502-7.502-7.502h-150.049c-4.144 0-7.502 3.359-7.502 7.502s3.359 7.502 7.502 7.502z"/><path d="m308.921 122.665h150.049c4.144 0 7.502-3.359 7.502-7.502s-3.358-7.502-7.502-7.502h-150.049c-4.144 0-7.502 3.359-7.502 7.502s3.359 7.502 7.502 7.502z"/><path d="m58.041 340.429c3.641-1.978 4.989-6.533 3.012-10.174-6.291-11.58-9.616-24.718-9.616-37.992v-11.652h159.43v11.652c0 43.955-35.761 79.715-79.715 79.715-17.928 0-34.859-5.81-48.962-16.803-3.266-2.547-7.981-1.963-10.529 1.305s-1.964 7.982 1.305 10.529c16.763 13.067 36.884 19.974 58.186 19.974 52.229 0 94.72-42.491 94.72-94.72 0-18.32 0-107.19 0-122.613 0-52.228-42.491-94.72-94.72-94.72-52.228 0-94.719 42.491-94.719 94.72v122.613c0 15.768 3.954 31.382 11.435 45.154 1.978 3.642 6.53 4.99 10.173 3.012zm73.11-250.494c38.481 0 70.68 27.409 78.103 63.729h-47.96c-4.144 0-7.502 3.359-7.502 7.502s3.359 7.502 7.502 7.502h49.547c.004.328.025.652.025.981v18.909h-49.572c-4.144 0-7.502 3.359-7.502 7.502s3.359 7.502 7.502 7.502h49.572v19.89h-49.572c-4.144 0-7.502 3.359-7.502 7.502s3.359 7.502 7.502 7.502h49.572v27.147h-159.429v-27.147h49.571c4.144 0 7.502-3.359 7.502-7.502s-3.359-7.502-7.502-7.502h-49.571v-19.89h49.571c4.144 0 7.502-3.359 7.502-7.502s-3.359-7.502-7.502-7.502h-49.571v-18.908c0-.329.021-.653.025-.981h49.546c4.144 0 7.502-3.359 7.502-7.502s-3.359-7.502-7.502-7.502h-47.96c7.424-36.321 39.622-63.73 78.103-63.73z"/><path d="m452.149 0h-145.741c-32.798 0-59.481 26.683-59.481 59.481v13.686c0 4.143 3.359 7.502 7.502 7.502 4.144 0 7.502-3.359 7.502-7.502v-13.686c0-24.524 19.952-44.476 44.476-44.476h145.741c24.524 0 44.475 19.952 44.475 44.476v62.445c0 24.524-19.952 44.476-44.475 44.476h-83.862c-7.415 0-14.446 3.58-18.809 9.578l-35.608 48.962v-37.147c0-10.841-7.275-20.124-17.69-22.574-20.165-4.743-34.247-22.546-34.247-43.295v-13.686c0-4.143-3.359-7.502-7.502-7.502-4.144 0-7.502 3.359-7.502 7.502v13.686c0 27.746 18.84 51.556 45.817 57.901 3.547.834 6.121 4.185 6.121 7.967v45.664c0 11.822 15.176 16.758 22.13 7.196l40.618-55.85c1.547-2.128 4.043-3.399 6.674-3.399h83.862c32.798 0 59.48-26.683 59.48-59.481v-62.443c-.001-32.798-26.684-59.481-59.481-59.481z"/></g></g></g></svg>