<?xml version="1.0" encoding="utf-8"?>
<!-- Generator: Adobe Illustrator 24.2.0, SVG Export Plug-In . SVG Version: 6.00 Build 0)  -->
<svg version="1.1" id="f02737fd-72c1-4c7a-8ed1-3bbe2454c5db"
	 xmlns="http://www.w3.org/2000/svg" xmlns:xlink="http://www.w3.org/1999/xlink" x="0px" y="0px" viewBox="0 0 846.6 682.6"
	 style="enable-background:new 0 0 846.6 682.6;" xml:space="preserve">
<style type="text/css">
	.st0{fill:#E6E6E6;}
	.st1{fill:#CCCCCC;}
	.st2{fill:#3F3D56;}
	.st3{fill:#FFFFFF;}
	.st4{fill:#6C63FF;}
	.st5{opacity:0.1;}
	.st6{fill:#FFB8B8;}
	.st7{fill:#2F2E41;}
</style>
<circle class="st0" cx="605.4" cy="362" r="97.2"/>
<path class="st1" d="M639.1,502.6L639.1,502.6c-0.7,2.5-2.3,4.7-4.5,6l-26.8,16.6V682h-5.5V443.1l-38.2-23.6
	c-2.8-1.7-5.1-4.3-6.5-7.3c3.3-0.1,6.6,0.8,9.4,2.6l35.3,21.9v-63.4c0-7.5,0.9-15,2.7-22.3c1.8,7.3,2.7,14.8,2.7,22.3v38.8
	l23.9-14.8c2.2-1.4,4.9-1.9,7.4-1.4l0,0c-0.7,2.5-2.3,4.7-4.5,6l-26.8,16.6v100.2l23.9-14.8C633.9,502.6,636.5,502.1,639.1,502.6z"
	/>
<circle class="st0" cx="749.4" cy="370.2" r="97.2"/>
<path class="st1" d="M715.7,510.8L715.7,510.8c0.7,2.5,2.3,4.7,4.5,6l26.8,16.6v147.1h5.5V451.4l38.2-23.6c2.8-1.7,5.1-4.3,6.5-7.3
	c-3.3-0.1-6.6,0.8-9.4,2.6l-35.3,21.9v-63.4c0-7.5-0.9-15-2.7-22.3c-1.8,7.3-2.7,14.8-2.7,22.3v38.8l-23.9-14.8
	c-2.2-1.4-4.9-1.9-7.4-1.4l0,0c0.7,2.5,2.3,4.7,4.5,6l26.8,16.6V527l-23.9-14.8C720.9,510.8,718.2,510.3,715.7,510.8z"/>
<circle class="st0" cx="678.8" cy="167.4" r="167.4"/>
<path class="st1" d="M620.8,409.4L620.8,409.4L620.8,409.4c1.2,4.3,4,8,7.8,10.4l46.1,28.6v232.5h9.4V307.1l65.7-40.7
	c4.8-3,8.7-7.3,11.2-12.5c-5.7-0.1-11.3,1.5-16.2,4.5L684.2,296V186.8c0-12.9-1.6-25.8-4.7-38.4c-3.1,12.5-4.7,25.4-4.7,38.4v66.9
	l-41.2-25.5c-3.8-2.4-8.4-3.2-12.8-2.4h0l0,0c1.2,4.3,4,8,7.8,10.4l46.1,28.6v172.4l-41.2-25.5C629.7,409.4,625.2,408.5,620.8,409.4
	z"/>
<rect x="0" y="680.6" class="st2" width="813" height="2"/>
<path class="st2" d="M201.4,163.3v77.2c0,1.3,1,2.3,2.3,2.3h2.3v400.6c0,21.5,17.5,39,39,39h253.8c21.5,0,39-17.5,39-39V256.7h1
	c1.3,0,2.3-1,2.3-2.3v-42.7c0,0,0,0,0,0c0-1.3-1-2.3-2.3-2.3h-1v-16.4h1.1c1.3,0,2.3-1,2.3-2.3v-42.3c0,0,0,0,0,0
	c0-1.3-1-2.3-2.3-2.3h-1.1v-22.4h0.9c1.3,0,2.3-1,2.3-2.3V99.3c0-1.3-1-2.3-2.3-2.3h-0.9V47c0-21.5-17.5-39-39-39H244.9
	c-21.5,0-39,17.5-39,39v114h-2.3C202.4,161,201.4,162,201.4,163.3z"/>
<path class="st3" d="M357,33.7V32c0-2.4,2-4.4,4.4-4.4h38.6c2.4,0,4.4,2,4.4,4.4v1.7c0,2.4-2,4.4-4.4,4.4h-38.6
	C358.9,38.1,357,36.1,357,33.7z"/>
<ellipse transform="matrix(1.612270e-02 -0.9999 0.9999 1.612270e-02 306.6986 377.4536)" class="st3" cx="345.1" cy="32.9" rx="5.3" ry="5.3"/>
<path class="st3" d="M252.8,25.6L252.8,25.6c-14.5,0-26.3,11.8-26.3,26.4v586.5v0c0,14.5,11.8,26.3,26.3,26.3h238.1
	c14.6,0,26.4-11.8,26.4-26.3V52l0,0l0,0c0-14.6-11.8-26.4-26.3-26.4h-35.6v4.6c0,0,0,0,0,0c0,12-9.7,21.7-21.7,21.7H312.5l0,0
	c-12,0-21.7-9.7-21.7-21.7v-4.6L252.8,25.6L252.8,25.6z"/>
<path class="st4" d="M293.3,566.1c0-15.2,12.3-27.5,27.5-27.5h102c15.2,0,27.5,12.3,27.5,27.5s-12.3,27.5-27.5,27.5h-102
	C305.6,593.6,293.3,581.3,293.3,566.1z"/>
<path class="st0" d="M271.3,358.2c0-5.2,4.3-9.5,9.5-9.5h182c5.2,0,9.5,4.3,9.5,9.5s-4.3,9.5-9.5,9.5h-182
	C275.6,367.7,271.3,363.4,271.3,358.2z"/>
<path class="st0" d="M271.3,386.2c0-5.2,4.3-9.5,9.5-9.5h182c5.2,0,9.5,4.3,9.5,9.5s-4.3,9.5-9.5,9.5h-182
	C275.6,395.7,271.3,391.4,271.3,386.2z"/>
<path class="st0" d="M271.3,414.2c0-5.2,4.3-9.5,9.5-9.5h182c5.2,0,9.5,4.3,9.5,9.5s-4.3,9.5-9.5,9.5h-182
	C275.6,423.7,271.3,419.4,271.3,414.2z"/>
<path class="st0" d="M271.3,442.2c0-5.2,4.3-9.5,9.5-9.5h182c5.2,0,9.5,4.3,9.5,9.5s-4.3,9.5-9.5,9.5h-182
	C275.6,451.7,271.3,447.4,271.3,442.2z"/>
<path class="st0" d="M404.8,479.7c-5.2,0-9.5-4.3-9.5-9.5s4.3-9.5,9.5-9.5h58c5.2,0,9.5,4.3,9.5,9.5s-4.3,9.5-9.5,9.5H404.8
	L404.8,479.7z"/>
<path class="st0" d="M244.4,281.9V104.5c0-4.4,3.6-8,8-8h239c4.4,0,8,3.6,8,8v177.4c0,4.4-3.6,8-8,8h-239
	C247.9,289.8,244.4,286.3,244.4,281.9z"/>
<g class="st5">
	<path d="M210,238.3c0.1-1.1,0.1-2.1,0-3.2c0,1.4,0,2.8,0,4.1C210,238.9,210,238.6,210,238.3z"/>
</g>
<circle class="st6" cx="170.1" cy="291.6" r="26.2"/>
<path class="st6" d="M101.9,504.4c3.2,3,8.1,3.4,11.8,1c4.4-2.9,5.6-8.8,2.7-13.2l9.7-28.6l-19.9-5.4l-3.6,31.8
	c-0.4,0.3-0.9,0.7-1.2,1.1C97.8,494.8,98,500.8,101.9,504.4L101.9,504.4z"/>
<polygon class="st6" points="114.8,622.9 98.5,612.4 76.3,658.2 87.3,665.3 "/>
<path class="st7" d="M48.5,654.7l0.3-0.5l0,0c4.6-7.1,14.1-9.1,21.2-4.5l21.7,14l0,0L83.1,677l0,0L48.5,654.7L48.5,654.7z"/>
<polygon class="st6" points="184.7,619.4 165.4,619.4 171.6,669.9 184.7,669.9 "/>
<path class="st7" d="M146.4,682.1v-0.6v0c0-8.5,6.9-15.3,15.3-15.3h25.9l0,0v15.9l0,0H146.4L146.4,682.1z"/>
<path class="st7" d="M129.5,356.6l-1.2,23.5c-0.2,4.3,3.7,6.2,2.8,10.4c-0.6,2.6-0.5,7.6-1.1,10.2c-0.7,3.9-1,7.8-0.9,11.7
	c-0.2,11.3-5,22.6-4.5,33.8c0.3,4,0.3,8,0.1,12c-0.5,6.7-2.5,13.3-5.9,19.1c-4.8-2.5-10.3-3-15.5-1.4c-0.8-5.4,15.9-94,16.6-98
	c1.1-5.8,3.8-11.2,5.8-16.8s8.2-11.7,6.4-17.4C133.9,347.4,129.7,352.4,129.5,356.6z"/>
<path class="st7" d="M125.3,428.7c-1.7,15.3-49.7,209.5-50,215.4c32.6,8.4,7.4,2.1,32.6,8.4c6.4-17.2,36.5-94.7,46.1-103.8
	c5.1,17,7.3,99.6,9.7,100.6s3.2,1.1,24.2,4.2c8-28.9,32.2-191.4,22.7-198.6c-6.2-4.7-15.1-6.1-19.3-12.7
	C169.5,437.9,147.3,433.1,125.3,428.7z"/>
<path class="st4" d="M150,328.6c-0.9,0-3.7,3.7-5.9,8.2c-2.2,4-4,8.1-5.4,12.5c-2.6,8.5-2,17.6-3.4,26.3c-1.1,7.1-3.5,13.9-4.5,21.1
	c-1.7,12.4,0.8,25-1.8,37.2c3.7,4.9,54,13.2,59.6,15.6c1.5-4.6,1.4-9.6,1.8-14.4c0.6-7,3-13.4,4.4-20.3c2.1-10.4-1-21.1-1.9-31.7
	c-0.4-6.1-0.4-12.3,0-18.4c0.3-6.7,3.8-36.7,1.2-44.4C194.1,319.6,152.4,328.7,150,328.6z"/>
<path class="st7" d="M219.9,497.2c0,0-1-18.9-2.1-28.4c-2-16.7-1.9-33.5-1.7-50.3c-0.1-2.7,9-25.6,12.5-30.8c3-4.7,7-9.1,8.2-14.6
	s2.3-11.4,0.8-16.8c-2.2-8.2-9.8-13.6-17.3-17.7s-15.5-7.8-20.4-14.7c-1.5-2-3.8-4.6-5.9-3.3c-0.6,0.5-1.1,1.1-1.5,1.9
	c-10.4,19.8-20.7,39.9-26.8,61.4c-3.5,12.5,4.2,63.8,14.6,71.4c4.4,3.2,14.2,17.4,14.3,21c0.4,9.9,9.2,27.3,9.2,27.3L219.9,497.2z"
	/>
<path class="st7" d="M109.8,475.6c2.7-12.8,6.2-25.5,10.5-37.9c1.3-3.4,2.4-6.9,3.3-10.5c4.3-18-3.9-35.8-3.3-54.3
	c0.3-9.5,3.9-18.6,7.6-27.4c1.7-4.1,3.7-8.5,7.5-10.8c2.6-1.5,5.7-1.9,8.4-3.3c1.7-0.9,3.1-2.1,4.9-2.9s3.9-1.1,5.4,0
	c1.8,1.2,2.2,3.6,2.3,5.7c0.7,11.8-3.3,23.3-6.4,34.8c-10.2,38.6-9.3,80.1-25.4,116.7C124,487.3,109.3,477.8,109.8,475.6z"/>
<path class="st6" d="M175.6,477.1c0.7,4.4,4.2,7.7,8.6,8.1c5.3,0.5,9.9-3.4,10.3-8.7l25.4-16.3l-12.2-16.7l-22.6,22.6
	c-0.6,0-1.1,0-1.7,0.1C178.4,467,174.8,471.9,175.6,477.1L175.6,477.1z"/>
<path class="st7" d="M230.5,350.2c-0.6-0.9-1.5-1.6-2.4-2.2c-2.3-1.1-5-0.1-7.1,1.4c-4.7,3.4-7.3,9-8.7,14.6
	c-3.9,14.9-1,30.8,5.1,44.9c1.9,4.4,4.2,9.6,1.9,13.8c-0.7,1.2-21.2,22.7-31,31.9c3.9,2.3,16.1,17.4,15.2,22
	c15.5-11.7,44-47.5,44.4-50.9C248,423.3,237.8,359,230.5,350.2z"/>
<path class="st7" d="M182,315c8.9-3.7,17.1-9.9,21.5-18.5s4.8-19.5-0.4-27.7c-2.7-4.2-6.5-7.4-10.3-10.5c-4.2-3.4-8.5-7-13.7-8.6
	c-8.5-2.7-17.8,0.3-25.8,4.3c-4.7,2.4-9.4,5.4-11.6,10.2s-0.6,11.6,4.4,13.3c4.9,1.7,10-2.2,15.2-2.1c4.5,0.1,8.6,3.1,11,7
	s12.8,0.8,13.8,5.2c1.5,6.5-6.2,20.5-4.7,27"/>
</svg>
